<svg xmlns="http://www.w3.org/2000/svg" width="512" height="512" viewBox="0 0 34 24" fill="none" stroke="#d4d4d4" stroke-width="2" stroke-linecap="round" stroke-linejoin="round">
  <!-- Lucide volume-2 -->
  <path d="M11 4.702a.705.705 0 0 0-1.203-.498L6.413 7.587A1.4 1.4 0 0 1 5.416 8H3a1 1 0 0 0-1 1v6a1 1 0 0 0 1 1h2.416a1.4 1.4 0 0 1 .997.413l3.383 3.384A.705.705 0 0 0 11 19.298z"/>
  <path d="M16 9a5 5 0 0 1 0 6"/>
  <path d="M19.364 18.364a9 9 0 0 0 0-12.728"/>
  <!-- Lucide music-2, shifted left -->
  <circle cx="25" cy="18" r="4"/>
  <path d="M29 18V2l4 2.3"/>
</svg>
