<svg xmlns="http://www.w3.org/2000/svg" width="1920" height="960" viewBox="0 0 1920 960">
  <defs>
    <linearGradient id="bg" x1="0" y1="0" x2="1" y2="1">
      <stop offset="0%" stop-color="#1a1a2e"/>
      <stop offset="100%" stop-color="#16213e"/>
    </linearGradient>
  </defs>
  <rect width="1920" height="960" fill="url(#bg)"/>

  <!-- Plugin icon (volume + music note) centered left -->
  <g transform="translate(480, 280) scale(12)" fill="none" stroke="#e0e0e0" stroke-width="2" stroke-linecap="round" stroke-linejoin="round">
    <path d="M11 4.702a.705.705 0 0 0-1.203-.498L6.413 7.587A1.4 1.4 0 0 1 5.416 8H3a1 1 0 0 0-1 1v6a1 1 0 0 0 1 1h2.416a1.4 1.4 0 0 1 .997.413l3.383 3.384A.705.705 0 0 0 11 19.298z"/>
    <path d="M16 9a5 5 0 0 1 0 6"/>
    <path d="M19.364 18.364a9 9 0 0 0 0-12.728"/>
    <circle cx="25" cy="18" r="4"/>
    <path d="M29 18V2l4 2.3"/>
  </g>

  <!-- Title -->
  <text x="960" y="780" text-anchor="middle" font-family="-apple-system, BlinkMacSystemFont, 'Segoe UI', sans-serif" font-size="64" font-weight="700" fill="#ffffff">Apple Music Volume</text>

  <!-- Subtitle -->
  <text x="960" y="850" text-anchor="middle" font-family="-apple-system, BlinkMacSystemFont, 'Segoe UI', sans-serif" font-size="36" fill="#8892b0">Dial control for Stream Deck+</text>
</svg>
